<?xml version="1.0" encoding="UTF-8" ?>
<svg version="1.1" width="160" height="165" xmlns="http://www.w3.org/2000/svg" shape-rendering="crispEdges">
<rect x="0" y="0" width="160" height="5" fill="#000000" />
<rect x="0" y="5" width="60" height="5" fill="#000000" />
<rect x="60" y="5" width="40" height="5" fill="#FF722B" />
<rect x="100" y="5" width="60" height="5" fill="#000000" />
<rect x="0" y="10" width="55" height="5" fill="#000000" />
<rect x="55" y="10" width="5" height="5" fill="#FF722B" />
<rect x="60" y="10" width="40" height="5" fill="#000000" />
<rect x="100" y="10" width="5" height="5" fill="#FF722B" />
<rect x="105" y="10" width="55" height="5" fill="#000000" />
<rect x="0" y="15" width="50" height="5" fill="#000000" />
<rect x="50" y="15" width="5" height="5" fill="#FF722B" />
<rect x="55" y="15" width="10" height="5" fill="#000000" />
<rect x="65" y="15" width="30" height="5" fill="#FF722B" />
<rect x="95" y="15" width="10" height="5" fill="#000000" />
<rect x="105" y="15" width="5" height="5" fill="#FF722B" />
<rect x="110" y="15" width="50" height="5" fill="#000000" />
<rect x="0" y="20" width="20" height="5" fill="#000000" />
<rect x="20" y="20" width="5" height="5" fill="#FF722B" />
<rect x="25" y="20" width="20" height="5" fill="#000000" />
<rect x="45" y="20" width="5" height="5" fill="#FF722B" />
<rect x="50" y="20" width="10" height="5" fill="#000000" />
<rect x="60" y="20" width="5" height="5" fill="#FF722B" />
<rect x="65" y="20" width="30" height="5" fill="#000000" />
<rect x="95" y="20" width="5" height="5" fill="#FF722B" />
<rect x="100" y="20" width="10" height="5" fill="#000000" />
<rect x="110" y="20" width="5" height="5" fill="#FF722B" />
<rect x="115" y="20" width="20" height="5" fill="#000000" />
<rect x="135" y="20" width="5" height="5" fill="#FF722B" />
<rect x="140" y="20" width="20" height="5" fill="#000000" />
<rect x="0" y="25" width="15" height="25" fill="#000000" />
<rect x="15" y="25" width="5" height="25" fill="#FF722B" />
<rect x="20" y="25" width="5" height="30" fill="#000000" />
<rect x="25" y="25" width="5" height="5" fill="#FF722B" />
<rect x="30" y="25" width="25" height="5" fill="#000000" />
<rect x="55" y="25" width="5" height="5" fill="#FF722B" />
<rect x="60" y="25" width="10" height="5" fill="#000000" />
<rect x="70" y="25" width="20" height="5" fill="#FF722B" />
<rect x="90" y="25" width="10" height="5" fill="#000000" />
<rect x="100" y="25" width="5" height="5" fill="#FF722B" />
<rect x="105" y="25" width="25" height="5" fill="#000000" />
<rect x="130" y="25" width="5" height="5" fill="#FF722B" />
<rect x="135" y="25" width="5" height="30" fill="#000000" />
<rect x="140" y="25" width="5" height="25" fill="#FF722B" />
<rect x="145" y="25" width="15" height="25" fill="#000000" />
<rect x="25" y="30" width="5" height="20" fill="#000000" />
<rect x="30" y="30" width="5" height="5" fill="#FF722B" />
<rect x="35" y="30" width="30" height="5" fill="#000000" />
<rect x="65" y="30" width="5" height="5" fill="#FF722B" />
<rect x="70" y="30" width="20" height="5" fill="#000000" />
<rect x="90" y="30" width="5" height="5" fill="#FF722B" />
<rect x="95" y="30" width="30" height="5" fill="#000000" />
<rect x="125" y="30" width="5" height="5" fill="#FF722B" />
<rect x="130" y="30" width="5" height="20" fill="#000000" />
<rect x="30" y="35" width="5" height="15" fill="#000000" />
<rect x="35" y="35" width="5" height="5" fill="#FF722B" />
<rect x="40" y="35" width="35" height="5" fill="#000000" />
<rect x="75" y="35" width="10" height="5" fill="#FF722B" />
<rect x="85" y="35" width="35" height="5" fill="#000000" />
<rect x="120" y="35" width="5" height="5" fill="#FF722B" />
<rect x="125" y="35" width="5" height="15" fill="#000000" />
<rect x="35" y="40" width="5" height="20" fill="#000000" />
<rect x="40" y="40" width="5" height="5" fill="#FF722B" />
<rect x="45" y="40" width="70" height="5" fill="#000000" />
<rect x="115" y="40" width="5" height="5" fill="#FF722B" />
<rect x="120" y="40" width="5" height="20" fill="#000000" />
<rect x="40" y="45" width="5" height="10" fill="#000000" />
<rect x="45" y="45" width="5" height="10" fill="#FF722B" />
<rect x="50" y="45" width="60" height="5" fill="#000000" />
<rect x="110" y="45" width="5" height="10" fill="#FF722B" />
<rect x="115" y="45" width="5" height="10" fill="#000000" />
<rect x="0" y="50" width="10" height="115" fill="#000000" />
<rect x="10" y="50" width="5" height="75" fill="#FF722B" />
<rect x="15" y="50" width="5" height="30" fill="#000000" />
<rect x="25" y="50" width="10" height="5" fill="#FF722B" />
<rect x="50" y="50" width="60" height="5" fill="#FF722B" />
<rect x="125" y="50" width="10" height="5" fill="#FF722B" />
<rect x="140" y="50" width="5" height="30" fill="#000000" />
<rect x="145" y="50" width="5" height="75" fill="#FF722B" />
<rect x="150" y="50" width="10" height="115" fill="#000000" />
<rect x="20" y="55" width="10" height="5" fill="#FF722B" />
<rect x="30" y="55" width="5" height="10" fill="#000000" />
<rect x="40" y="55" width="5" height="5" fill="#FF722B" />
<rect x="45" y="55" width="70" height="10" fill="#000000" />
<rect x="115" y="55" width="5" height="5" fill="#FF722B" />
<rect x="125" y="55" width="5" height="10" fill="#000000" />
<rect x="130" y="55" width="10" height="5" fill="#FF722B" />
<rect x="20" y="60" width="5" height="5" fill="#FF722B" />
<rect x="25" y="60" width="5" height="10" fill="#000000" />
<rect x="35" y="60" width="5" height="5" fill="#FF722B" />
<rect x="40" y="60" width="5" height="15" fill="#000000" />
<rect x="115" y="60" width="5" height="15" fill="#000000" />
<rect x="120" y="60" width="5" height="5" fill="#FF722B" />
<rect x="130" y="60" width="5" height="10" fill="#000000" />
<rect x="135" y="60" width="5" height="5" fill="#FF722B" />
<rect x="20" y="65" width="5" height="10" fill="#000000" />
<rect x="30" y="65" width="5" height="5" fill="#FF722B" />
<rect x="35" y="65" width="5" height="80" fill="#000000" />
<rect x="45" y="65" width="5" height="5" fill="#000000" />
<rect x="50" y="65" width="5" height="5" fill="#FF722B" />
<rect x="55" y="65" width="10" height="5" fill="#000000" />
<rect x="65" y="65" width="30" height="5" fill="#FF722B" />
<rect x="95" y="65" width="10" height="5" fill="#000000" />
<rect x="105" y="65" width="5" height="5" fill="#FF722B" />
<rect x="110" y="65" width="5" height="5" fill="#000000" />
<rect x="120" y="65" width="5" height="80" fill="#000000" />
<rect x="125" y="65" width="5" height="5" fill="#FF722B" />
<rect x="135" y="65" width="5" height="10" fill="#000000" />
<rect x="25" y="70" width="5" height="5" fill="#FF722B" />
<rect x="30" y="70" width="5" height="25" fill="#000000" />
<rect x="45" y="70" width="5" height="5" fill="#FF722B" />
<rect x="50" y="70" width="10" height="5" fill="#000000" />
<rect x="60" y="70" width="5" height="5" fill="#FF722B" />
<rect x="65" y="70" width="30" height="15" fill="#000000" />
<rect x="95" y="70" width="5" height="5" fill="#FF722B" />
<rect x="100" y="70" width="10" height="5" fill="#000000" />
<rect x="110" y="70" width="5" height="5" fill="#FF722B" />
<rect x="125" y="70" width="5" height="25" fill="#000000" />
<rect x="130" y="70" width="5" height="5" fill="#FF722B" />
<rect x="20" y="75" width="5" height="5" fill="#FF722B" />
<rect x="25" y="75" width="5" height="15" fill="#000000" />
<rect x="40" y="75" width="5" height="5" fill="#FF722B" />
<rect x="45" y="75" width="10" height="5" fill="#000000" />
<rect x="55" y="75" width="5" height="5" fill="#FF722B" />
<rect x="60" y="75" width="5" height="15" fill="#000000" />
<rect x="95" y="75" width="5" height="15" fill="#000000" />
<rect x="100" y="75" width="5" height="5" fill="#FF722B" />
<rect x="105" y="75" width="10" height="5" fill="#000000" />
<rect x="115" y="75" width="5" height="5" fill="#FF722B" />
<rect x="130" y="75" width="5" height="15" fill="#000000" />
<rect x="135" y="75" width="5" height="5" fill="#FF722B" />
<rect x="15" y="80" width="5" height="5" fill="#FF722B" />
<rect x="20" y="80" width="5" height="50" fill="#000000" />
<rect x="40" y="80" width="10" height="5" fill="#000000" />
<rect x="50" y="80" width="5" height="5" fill="#FF722B" />
<rect x="55" y="80" width="5" height="15" fill="#000000" />
<rect x="100" y="80" width="5" height="15" fill="#000000" />
<rect x="105" y="80" width="5" height="5" fill="#FF722B" />
<rect x="110" y="80" width="10" height="5" fill="#000000" />
<rect x="135" y="80" width="5" height="50" fill="#000000" />
<rect x="140" y="80" width="5" height="5" fill="#FF722B" />
<rect x="15" y="85" width="5" height="40" fill="#000000" />
<rect x="40" y="85" width="5" height="65" fill="#000000" />
<rect x="45" y="85" width="5" height="40" fill="#FF722B" />
<rect x="50" y="85" width="5" height="40" fill="#000000" />
<rect x="65" y="85" width="30" height="40" fill="#FF722B" />
<rect x="105" y="85" width="5" height="40" fill="#000000" />
<rect x="110" y="85" width="5" height="40" fill="#FF722B" />
<rect x="115" y="85" width="5" height="65" fill="#000000" />
<rect x="140" y="85" width="5" height="40" fill="#000000" />
<rect x="25" y="90" width="5" height="5" fill="#FF722B" />
<rect x="60" y="90" width="5" height="30" fill="#FF722B" />
<rect x="95" y="90" width="5" height="30" fill="#FF722B" />
<rect x="130" y="90" width="5" height="5" fill="#FF722B" />
<rect x="25" y="95" width="5" height="5" fill="#000000" />
<rect x="30" y="95" width="5" height="5" fill="#FF722B" />
<rect x="55" y="95" width="5" height="20" fill="#FF722B" />
<rect x="100" y="95" width="5" height="20" fill="#FF722B" />
<rect x="125" y="95" width="5" height="5" fill="#FF722B" />
<rect x="130" y="95" width="5" height="5" fill="#000000" />
<rect x="25" y="100" width="5" height="5" fill="#FF722B" />
<rect x="30" y="100" width="5" height="5" fill="#000000" />
<rect x="125" y="100" width="5" height="5" fill="#000000" />
<rect x="130" y="100" width="5" height="5" fill="#FF722B" />
<rect x="25" y="105" width="5" height="5" fill="#000000" />
<rect x="30" y="105" width="5" height="5" fill="#FF722B" />
<rect x="125" y="105" width="5" height="5" fill="#FF722B" />
<rect x="130" y="105" width="5" height="5" fill="#000000" />
<rect x="25" y="110" width="5" height="5" fill="#FF722B" />
<rect x="30" y="110" width="5" height="5" fill="#000000" />
<rect x="125" y="110" width="5" height="5" fill="#000000" />
<rect x="130" y="110" width="5" height="5" fill="#FF722B" />
<rect x="25" y="115" width="5" height="20" fill="#000000" />
<rect x="30" y="115" width="5" height="5" fill="#FF722B" />
<rect x="55" y="115" width="5" height="15" fill="#000000" />
<rect x="100" y="115" width="5" height="15" fill="#000000" />
<rect x="125" y="115" width="5" height="5" fill="#FF722B" />
<rect x="130" y="115" width="5" height="20" fill="#000000" />
<rect x="30" y="120" width="5" height="20" fill="#000000" />
<rect x="60" y="120" width="5" height="15" fill="#000000" />
<rect x="95" y="120" width="5" height="15" fill="#000000" />
<rect x="125" y="120" width="5" height="20" fill="#000000" />
<rect x="10" y="125" width="5" height="40" fill="#000000" />
<rect x="15" y="125" width="5" height="5" fill="#FF722B" />
<rect x="45" y="125" width="5" height="30" fill="#000000" />
<rect x="50" y="125" width="5" height="5" fill="#FF722B" />
<rect x="65" y="125" width="30" height="15" fill="#000000" />
<rect x="105" y="125" width="5" height="5" fill="#FF722B" />
<rect x="110" y="125" width="5" height="30" fill="#000000" />
<rect x="140" y="125" width="5" height="5" fill="#FF722B" />
<rect x="145" y="125" width="5" height="40" fill="#000000" />
<rect x="15" y="130" width="5" height="35" fill="#000000" />
<rect x="20" y="130" width="5" height="5" fill="#FF722B" />
<rect x="50" y="130" width="5" height="25" fill="#000000" />
<rect x="55" y="130" width="5" height="5" fill="#FF722B" />
<rect x="100" y="130" width="5" height="5" fill="#FF722B" />
<rect x="105" y="130" width="5" height="25" fill="#000000" />
<rect x="135" y="130" width="5" height="5" fill="#FF722B" />
<rect x="140" y="130" width="5" height="35" fill="#000000" />
<rect x="20" y="135" width="5" height="30" fill="#000000" />
<rect x="25" y="135" width="5" height="5" fill="#FF722B" />
<rect x="55" y="135" width="5" height="20" fill="#000000" />
<rect x="60" y="135" width="5" height="5" fill="#FF722B" />
<rect x="95" y="135" width="5" height="5" fill="#FF722B" />
<rect x="100" y="135" width="5" height="20" fill="#000000" />
<rect x="130" y="135" width="5" height="5" fill="#FF722B" />
<rect x="135" y="135" width="5" height="30" fill="#000000" />
<rect x="25" y="140" width="5" height="25" fill="#000000" />
<rect x="30" y="140" width="5" height="5" fill="#FF722B" />
<rect x="60" y="140" width="5" height="15" fill="#000000" />
<rect x="65" y="140" width="30" height="5" fill="#FF722B" />
<rect x="95" y="140" width="5" height="15" fill="#000000" />
<rect x="125" y="140" width="5" height="5" fill="#FF722B" />
<rect x="130" y="140" width="5" height="25" fill="#000000" />
<rect x="30" y="145" width="5" height="20" fill="#000000" />
<rect x="35" y="145" width="5" height="5" fill="#FF722B" />
<rect x="65" y="145" width="30" height="10" fill="#000000" />
<rect x="120" y="145" width="5" height="5" fill="#FF722B" />
<rect x="125" y="145" width="5" height="20" fill="#000000" />
<rect x="35" y="150" width="5" height="15" fill="#000000" />
<rect x="40" y="150" width="5" height="5" fill="#FF722B" />
<rect x="115" y="150" width="5" height="5" fill="#FF722B" />
<rect x="120" y="150" width="5" height="15" fill="#000000" />
<rect x="40" y="155" width="5" height="10" fill="#000000" />
<rect x="45" y="155" width="70" height="5" fill="#FF722B" />
<rect x="115" y="155" width="5" height="10" fill="#000000" />
<rect x="45" y="160" width="70" height="5" fill="#000000" />
</svg>